<svg xmlns="http://www.w3.org/2000/svg" viewBox="0 0 25.34 24.577"><defs><style>.a{fill:#fff;}</style></defs><path class="a" d="M47.107,357.4l-1.3,8.609-2.221-2.221A12.331,12.331,0,0,1,23,355.911c.048-.007.1-.015.144-.019.226-.026.452-.037.626-.041h.03l.03,0,2.217-.248a8.866,8.866,0,0,0,2.669,5.641,9.278,9.278,0,0,0,12.7.385l-2.943-2.943Z" transform="translate(-22.149 -342.438)"/><path class="a" d="M25.34,11.6q-1.527.244-3.05.492A9.27,9.27,0,0,0,6.47,5.778a8.973,8.973,0,0,0-.759.874l2.9,2.9L0,10.849,1.277,2.217l2.25,2.25q.366-.444.777-.855A12.257,12.257,0,0,1,13.029,0h0A12.334,12.334,0,0,1,25.34,11.6Z"/></svg>